<svg width="64" height="64" viewBox="0 0 64 64" fill="none" xmlns="http://www.w3.org/2000/svg">
  <rect width="64" height="64" rx="14" fill="#0F2A4A"/>
  <rect x="10" y="10" width="44" height="44" rx="10" fill="#10B981"/>
  <path d="M24 38V26H28.5C30.7091 26 32.5 27.7909 32.5 30C32.5 32.2091 30.7091 34 28.5 34H27.2V38H24ZM27.2 31.6H28.5C29.3837 31.6 30.1 30.8837 30.1 30C30.1 29.1163 29.3837 28.4 28.5 28.4H27.2V31.6Z" fill="#0F2A4A"/>
  <path d="M36 38C33.7909 38 32 36.2091 32 34V30C32 27.7909 33.7909 26 36 26C38.2091 26 40 27.7909 40 30V34C40 36.2091 38.2091 38 36 38ZM36 35.6C36.8837 35.6 37.6 34.8837 37.6 34V30C37.6 29.1163 36.8837 28.4 36 28.4C35.1163 28.4 34.4 29.1163 34.4 30V34C34.4 34.8837 35.1163 35.6 36 35.6Z" fill="#0F2A4A"/>
</svg>
